<?xml version="1.0" encoding="utf-8"?>
<!-- Generator: Adobe Illustrator 19.0.0, SVG Export Plug-In . SVG Version: 6.00 Build 0)  -->
<svg version="1.1" id="OBJECTS" xmlns="http://www.w3.org/2000/svg" xmlns:xlink="http://www.w3.org/1999/xlink" x="0px" y="0px"
	 viewBox="-323 360.8 152.5 80.2" style="enable-background:new -323 360.8 152.5 80.2;" xml:space="preserve">
<style type="text/css">
	.st0{display:none;}
	.st1{display:inline;fill:url(#SVGID_1_);}
	.st2{display:inline;fill:url(#SVGID_2_);}
	.st3{display:inline;fill:url(#SVGID_3_);}
	.st4{fill-rule:evenodd;clip-rule:evenodd;fill:url(#SVGID_4_);}
	.st5{fill-rule:evenodd;clip-rule:evenodd;fill:url(#SVGID_5_);}
	.st6{fill-rule:evenodd;clip-rule:evenodd;fill:url(#SVGID_6_);}
</style>
<g class="st0">
	
		<linearGradient id="SVGID_1_" gradientUnits="userSpaceOnUse" x1="-323" y1="420.2" x2="-280.8078" y2="420.2" gradientTransform="matrix(1 0 0 -1 0 803.6)">
		<stop  offset="0" style="stop-color:#59D9E9"/>
		<stop  offset="1" style="stop-color:#76EAF3"/>
	</linearGradient>
	<path class="st1" d="M-301.2,406l-16.7-0.6c0,0-3.6-12.1-5.1-27.2c0,0,22.5-6.4,36.6-17.4c0,0,6.2,11.7,5.6,24.6h-11.1v9.3h-9.3
		V406z"/>
	
		<linearGradient id="SVGID_2_" gradientUnits="userSpaceOnUse" x1="-304.5722" y1="372.8713" x2="-269.7384" y2="433.2053" gradientTransform="matrix(1 0 0 -1 0 803.6)">
		<stop  offset="0" style="stop-color:#67E2EE"/>
		<stop  offset="1" style="stop-color:#8BF7FA"/>
	</linearGradient>
	<path class="st2" d="M-260.8,386.6l-10-14.3c0,0-12.8-10.2-15.6-11.5c0,0-0.7,25.3-31.5,44.6c0,0,6.9,23.2,31.3,35.6
		C-286.6,441-262.4,420.1-260.8,386.6L-260.8,386.6z M-291.9,385.4h12.4v9.3c3.6,0,7.2,0,10.8,0c-0.1,4.3-0.6,8.5-1.6,12.4h-9.2v9.3
		h-12.4v-9.3h-9.3v-12.4h9.3C-291.9,394.7-291.9,385.4-291.9,385.4z"/>
	
		<linearGradient id="SVGID_3_" gradientUnits="userSpaceOnUse" x1="-304.1242" y1="377.3885" x2="-257.9138" y2="432.46" gradientTransform="matrix(1 0 0 -1 0 803.6)">
		<stop  offset="0" style="stop-color:#21626E"/>
		<stop  offset="1" style="stop-color:#52D5E6"/>
	</linearGradient>
	<path class="st3" d="M-286.4,360.8c0,0,25.9,15.5,36.9,17.4c0,0,0.6,44.9-37,62.8c0,0,11.8-15.7,16.2-33.9l0,0
		c0.3-1.3,0.6-2.7,0.8-4.1c0.5-2.7,0.7-5.4,0.7-8.1v-0.2l0,0c0-0.1,0-0.2,0-0.4C-268.8,371.4-286.4,360.8-286.4,360.8z"/>
</g>
<g>
	<path d="M-234.6,414v-25.6h7.9c2.3,0,4.3,0.5,6,1.5s3.2,2.5,4.2,4.3c1,1.9,1.5,4,1.5,6.4v1.2c0,2.4-0.5,4.5-1.5,6.3
		c-1,1.8-2.4,3.3-4.1,4.3c-1.7,1-3.8,1.5-6,1.5h-8V414z M-229.3,392.7v17.1h2.5c2.1,0,3.6-0.7,4.7-2s1.6-3.3,1.7-5.8v-1.4
		c0-2.6-0.5-4.6-1.6-5.9c-1.1-1.3-2.7-2-4.7-2C-226.7,392.7-229.3,392.7-229.3,392.7z"/>
	<path d="M-212.4,390.1c0-0.8,0.3-1.4,0.8-1.9s1.2-0.7,2.1-0.7s1.6,0.2,2.1,0.7s0.8,1.1,0.8,1.9c0,0.8-0.3,1.4-0.8,1.9
		s-1.2,0.7-2.1,0.7s-1.5-0.2-2.1-0.7C-212.2,391.5-212.4,390.8-212.4,390.1z M-207,414h-5.1v-19h5.1V414z"/>
	<path d="M-198.3,409.9h9.3v4.1h-15.8v-3.1l8.9-11.8h-8.7V395h15.2v3L-198.3,409.9z"/>
	<path d="M-175.6,414c-0.2-0.5-0.4-1-0.5-1.7c-1.2,1.4-2.8,2.1-4.8,2.1c-1.9,0-3.4-0.5-4.6-1.6s-1.8-2.4-1.8-4.1
		c0-2,0.7-3.6,2.2-4.6s3.7-1.6,6.5-1.6h2.3v-1.1c0-0.9-0.2-1.6-0.7-2.1s-1.2-0.8-2.1-0.8c-0.9,0-1.5,0.2-2,0.6s-0.7,1-0.7,1.7h-5.2
		c0-1.1,0.3-2.1,1-3.1s1.6-1.7,2.9-2.2s2.6-0.8,4.2-0.8c2.3,0,4.2,0.6,5.6,1.8s2.1,2.8,2.1,5v8.2c0,1.8,0.3,3.2,0.8,4.1v0.3h-5.2
		V414z M-179.8,410.5c0.8,0,1.4-0.2,2.1-0.5c0.7-0.3,1.1-0.8,1.4-1.3v-3.3h-1.9c-2.5,0-3.9,0.9-4.1,2.6v0.3c0,0.6,0.2,1.2,0.7,1.6
		S-180.6,410.5-179.8,410.5z"/>
</g>
<g>
	<linearGradient id="SVGID_4_" gradientUnits="userSpaceOnUse" x1="-323.0005" y1="383.3719" x2="-280.7635" y2="383.3719">
		<stop  offset="0" style="stop-color:#FFC356"/>
		<stop  offset="1" style="stop-color:#FFE174"/>
	</linearGradient>
	<path class="st4" d="M-301.2,406l-16.7-0.6c0,0-3.6-12.2-5.1-27.2c0,0,22.5-6.4,36.6-17.4c0,0,6.2,11.7,5.6,24.7h-11.1v9.3h-9.3
		V406z"/>
	<linearGradient id="SVGID_5_" gradientUnits="userSpaceOnUse" x1="-317.888" y1="400.9" x2="-260.6905" y2="400.9">
		<stop  offset="0" style="stop-color:#FFC356"/>
		<stop  offset="1" style="stop-color:#FFE174"/>
	</linearGradient>
	<path class="st5" d="M-260.7,386.6l-10.1-14.4c0,0-12.8-10.2-15.6-11.5c0,0-0.7,25.3-31.5,44.6c0,0,6.9,23.2,31.4,35.6
		C-286.5,441-262.3,420.1-260.7,386.6L-260.7,386.6z M-291.9,385.4h12.4v9.3c3.6,0,7.2,0,10.8,0c-0.1,4.3-0.6,8.5-1.6,12.4h-9.2v9.3
		h-12.4v-9.3h-9.3v-12.4h9.3V385.4z"/>
	<linearGradient id="SVGID_6_" gradientUnits="userSpaceOnUse" x1="-299.2463" y1="433.6902" x2="-262.7704" y2="370.5121">
		<stop  offset="0" style="stop-color:#FF9D30"/>
		<stop  offset="1" style="stop-color:#FFE174"/>
	</linearGradient>
	<path class="st6" d="M-286.4,360.8c0,0,26,15.5,36.9,17.4c0,0,0.6,44.9-37,62.9c0,0,11.9-15.7,16.2-33.9h0c0.3-1.3,0.6-2.7,0.8-4.1
		c0.5-2.7,0.7-5.4,0.7-8.1l0-0.2h0c0-0.1,0-0.2,0-0.4C-268.8,371.4-286.4,360.8-286.4,360.8z"/>
</g>
</svg>
